<svg enable-background="new 0 0 374.7 104.6" viewBox="0 0 374.7 104.6" xmlns="http://www.w3.org/2000/svg"><g fill="#fff"><path d="m82.2 87.8v15.5h-1.7v-15.5z"/><path d="m94.6 89.4v13.9h-1.7v-13.9h-3.8v-1.6h9.2v1.6z"/><path d="m104.5 94h5.1v1.7h-5.1z"/><path d="m124.3 90.8c-.2-.4-.6-.9-.9-1.2-.3-.2-.9-.5-1.7-.5-1.5 0-2.6 1-2.6 2.4 0 .6.2 1 .6 1.3.5.5 1 .7 1.6 1l1.5.7c.9.4 1.7.8 2.4 1.5.8.8 1.1 1.7 1.1 2.8 0 2.9-2.1 4.8-4.9 4.8-1 0-2.3-.2-3.4-1.3-.8-.7-1.2-1.8-1.4-2.7l1.7-.5c.1.8.5 1.5.9 2 .7.7 1.4.9 2.2.9 2.1 0 3.1-1.5 3.1-3.1 0-.7-.2-1.3-.8-1.8-.4-.4-1-.7-1.9-1.1l-1.4-.7c-.6-.3-1.4-.6-2.1-1.3s-1.1-1.4-1.1-2.5c0-2.4 1.8-4 4.3-4 1 0 1.7.2 2.5.7.6.4 1.2 1 1.5 1.7z"/><path d="m133.3 95.5c0-4.6 3.6-8 8.1-8s8.1 3.4 8.1 8-3.6 8-8.1 8-8.1-3.4-8.1-8zm1.7 0c0 3.6 2.8 6.4 6.3 6.4s6.3-2.8 6.3-6.4-2.8-6.4-6.3-6.4-6.3 2.9-6.3 6.4z"/><path d="m158.9 87.8v13.9h4.3v1.6h-6v-15.5z"/><path d="m171.9 97.3c0 1.3 0 2.7 1.2 3.8.6.5 1.7.9 2.6.9s1.9-.3 2.6-.9c1.2-1 1.2-2.5 1.2-3.8v-9.5h1.7v10c0 1.3-.1 2.6-1 3.7-.9 1.3-2.6 2.1-4.5 2.1-2 0-3.6-.8-4.5-2.1-.8-1.2-1-2.4-1-3.7v-10h1.7z"/><path d="m193.6 89.4v13.9h-1.7v-13.9h-3.8v-1.6h9.2v1.6z"/><path d="m206 87.8v15.5h-1.7v-15.5z"/><path d="m213.8 95.5c0-4.6 3.6-8 8.1-8s8.1 3.4 8.1 8-3.6 8-8.1 8-8.1-3.4-8.1-8zm1.8 0c0 3.6 2.8 6.4 6.3 6.4s6.3-2.8 6.3-6.4-2.8-6.4-6.3-6.4-6.3 2.9-6.3 6.4z"/><path d="m237.8 103.3v-16.2l12.1 12.7v-12h1.7v16.2l-12.1-12.7v12z"/><path d="m267.1 90.8c-.2-.4-.6-.9-.9-1.2-.3-.2-.9-.5-1.7-.5-1.5 0-2.6 1-2.6 2.4 0 .6.2 1 .6 1.3.5.5 1 .7 1.6 1l1.5.7c.9.4 1.7.8 2.4 1.5.8.8 1.1 1.7 1.1 2.8 0 2.9-2.1 4.8-4.9 4.8-1 0-2.3-.2-3.4-1.3-.8-.7-1.2-1.8-1.4-2.7l1.7-.5c.1.8.5 1.5.9 2 .7.7 1.4.9 2.2.9 2.1 0 3.1-1.5 3.1-3.1 0-.7-.2-1.3-.8-1.8-.4-.4-1-.7-1.9-1.1l-1.4-.7c-.6-.3-1.4-.6-2.1-1.3s-1.1-1.4-1.1-2.5c0-2.4 1.8-4 4.3-4 1 0 1.7.2 2.5.7.6.4 1.2 1 1.5 1.7z"/><path d="m103.6 63.9h-16l-4.1 9.1h-6.1l18.4-39.6 17.8 39.6h-6.2zm-2.3-5.3-5.5-12.7-5.8 12.7z"/><path d="m138.1 73v-37.3h5.6c2.5 0 4.5.2 6 .6s2.8 1 3.8 2c1 .9 1.9 2.1 2.5 3.5s.9 2.9.9 4.3c0 2.7-1 4.9-3.1 6.8 2 .7 3.5 1.9 4.7 3.5 1.2 1.7 1.7 3.6 1.7 5.8 0 2.9-1 5.4-3.1 7.4-1.2 1.2-2.6 2.1-4.2 2.6-1.7.5-3.8.7-6.3.7h-8.5zm5.6-21.3h1.8c2.1 0 3.6-.5 4.6-1.4s1.5-2.3 1.5-4.1-.5-3.1-1.5-4-2.4-1.4-4.3-1.4h-2v10.9zm0 16h3.5c2.5 0 4.4-.5 5.6-1.5 1.3-1.1 1.9-2.4 1.9-4.1 0-1.6-.6-3-1.8-4.1s-3.3-1.6-6.3-1.6h-2.8v11.3z"/><path d="m208.4 63.9h-16l-4.2 9.1h-6.1l18.4-39.6 18 39.6h-6.2zm-2.3-5.3-5.5-12.7-5.8 12.7z"/><path d="m248.6 57.5v15.5h-5.6v-37.3h5.6v14.9"/><path d="m301.1 35.7v22.5c0 3.2.5 5.5 1.6 7 1.6 2.1 3.8 3.2 6.6 3.2s5.1-1.1 6.6-3.2c1-1.4 1.6-3.8 1.6-7v-22.5h5.6v24c0 3.9-1.2 7.2-3.7 9.7-2.8 2.8-6.1 4.2-10.1 4.2s-7.4-1.4-10.1-4.2c-2.4-2.5-3.7-5.8-3.7-9.7v-24z"/><path d="m372.9 41.2-4.6 2.7c-.9-1.5-1.7-2.4-2.4-2.9-.8-.5-1.8-.8-3.1-.8-1.6 0-2.9.4-3.9 1.3s-1.5 2-1.5 3.3c0 1.8 1.4 3.3 4.1 4.4l3.7 1.5c3 1.2 5.2 2.7 6.6 4.5s2.1 3.9 2.1 6.5c0 3.4-1.1 6.3-3.4 8.5-2.3 2.3-5.2 3.4-8.6 3.4-3.2 0-5.9-1-8-2.9s-3.4-4.6-3.9-8.1l5.7-1.3c.3 2.2.7 3.7 1.4 4.5 1.2 1.6 2.8 2.4 5.1 2.4 1.8 0 3.2-.6 4.4-1.8s1.7-2.7 1.7-4.5c0-.7-.1-1.4-.3-2s-.5-1.2-.9-1.7-1-1-1.7-1.4-1.5-.9-2.4-1.3l-3.6-1.5c-5.1-2.2-7.7-5.3-7.7-9.5 0-2.8 1.1-5.1 3.2-7s4.8-2.8 8-2.8c4.2.3 7.6 2.3 10 6.5z"/><path d="m248.6 57.5v15.5h-5.6v-37.3h5.6v14.9"/><path d="m269.1 73h-6.5l-13.6-18.7h6.5z"/><path d="m255.5 54.4h-6.5l13.6-18.6h6.5z"/></g><circle cx="33" cy="13.4" fill="#ff4c02" r="13.1"/><path d="m33 33.3-32.2 70.9h10.2l22-48.4 22.1 48.4h10.2z" fill="#fff"/></svg>